<svg width="24" height="24" viewBox="0 0 24 24" fill="none" xmlns="http://www.w3.org/2000/svg">
<g id="material-symbols:chevron-left-rounded">
<path id="Vector" d="M10.7998 12L14.6998 15.9C14.8831 16.0833 14.9748 16.3167 14.9748 16.6C14.9748 16.8833 14.8831 17.1167 14.6998 17.3C14.5165 17.4833 14.2831 17.575 13.9998 17.575C13.7165 17.575 13.4831 17.4833 13.2998 17.3L8.6998 12.7C8.5998 12.6 8.52914 12.4917 8.4878 12.375C8.44647 12.2583 8.42547 12.1333 8.4248 12C8.4248 11.8667 8.4458 11.7417 8.4878 11.625C8.5298 11.5083 8.60047 11.4 8.6998 11.3L13.2998 6.7C13.4831 6.51667 13.7165 6.425 13.9998 6.425C14.2831 6.425 14.5165 6.51667 14.6998 6.7C14.8831 6.88334 14.9748 7.11667 14.9748 7.4C14.9748 7.68334 14.8831 7.91667 14.6998 8.1L10.7998 12Z" fill="black"/>
</g>
</svg>
