<svg width="29" height="30" viewBox="0 0 29 30" fill="none" xmlns="http://www.w3.org/2000/svg">
<g id="mdi:linkedin">
<path id="Vector" d="M22.9583 4.125C23.5993 4.125 24.214 4.37961 24.6672 4.83283C25.1204 5.28604 25.375 5.90073 25.375 6.54167V23.4583C25.375 24.0993 25.1204 24.714 24.6672 25.1672C24.214 25.6204 23.5993 25.875 22.9583 25.875H6.04167C5.40073 25.875 4.78604 25.6204 4.33283 25.1672C3.87961 24.714 3.625 24.0993 3.625 23.4583V6.54167C3.625 5.90073 3.87961 5.28604 4.33283 4.83283C4.78604 4.37961 5.40073 4.125 6.04167 4.125H22.9583ZM22.3542 22.8542V16.45C22.3542 15.4053 21.9391 14.4033 21.2004 13.6646C20.4617 12.9259 19.4597 12.5108 18.415 12.5108C17.3879 12.5108 16.1917 13.1392 15.6117 14.0817V12.7404H12.2404V22.8542H15.6117V16.8971C15.6117 15.9667 16.3608 15.2054 17.2913 15.2054C17.7399 15.2054 18.1702 15.3836 18.4874 15.7009C18.8047 16.0181 18.9829 16.4484 18.9829 16.8971V22.8542H22.3542ZM8.31333 10.8433C8.85172 10.8433 9.36806 10.6295 9.74876 10.2488C10.1295 9.86806 10.3433 9.35172 10.3433 8.81333C10.3433 7.68958 9.43708 6.77125 8.31333 6.77125C7.77174 6.77125 7.25233 6.9864 6.86936 7.36936C6.4864 7.75233 6.27125 8.27174 6.27125 8.81333C6.27125 9.93708 7.18958 10.8433 8.31333 10.8433ZM9.99292 22.8542V12.7404H6.64583V22.8542H9.99292Z" fill="black"/>
</g>
</svg>
